<?xml version="1.0" encoding="UTF-8"?>
<svg version="1.1" xmlns="http://www.w3.org/2000/svg" width="280" height="280">
<path d="M0 0 C0.75357788 -0.00570007 1.50715576 -0.01140015 2.28356934 -0.01727295 C3.87360251 -0.0266705 5.46365471 -0.03323591 7.05371094 -0.03710938 C9.43461104 -0.04673695 11.81461714 -0.07777722 14.1953125 -0.109375 C24.19503267 -0.17843995 33.24361043 0.8286598 42.96875 3.203125 C43.75894531 3.38166016 44.54914063 3.56019531 45.36328125 3.74414062 C53.71758033 5.66247371 61.32252512 8.3693928 68.96875 12.203125 C70.103125 12.74066406 71.2375 13.27820313 72.40625 13.83203125 C79.77045192 17.35269774 86.42481421 21.33294899 92.96875 26.203125 C94.34306858 27.14162363 95.71799519 28.07923301 97.09375 29.015625 C98.0425 29.7375 98.99125 30.459375 99.96875 31.203125 C99.96875 31.863125 99.96875 32.523125 99.96875 33.203125 C100.85868652 33.6062793 100.85868652 33.6062793 101.76660156 34.01757812 C103.97415033 35.20603232 105.43417882 36.41054889 107.203125 38.171875 C107.77675781 38.74292969 108.35039062 39.31398437 108.94140625 39.90234375 C109.52792969 40.49660156 110.11445313 41.09085938 110.71875 41.703125 C111.32074219 42.29738281 111.92273438 42.89164063 112.54296875 43.50390625 C113.11144531 44.07496094 113.67992187 44.64601562 114.265625 45.234375 C115.04437988 46.01651367 115.04437988 46.01651367 115.83886719 46.81445312 C116.96875 48.203125 116.96875 48.203125 116.96875 50.203125 C117.62875 50.203125 118.28875 50.203125 118.96875 50.203125 C127.26421494 59.74485698 133.71486642 71.76034467 138.96875 83.203125 C139.35546875 84.01007813 139.7421875 84.81703125 140.140625 85.6484375 C146.34975676 99.4081801 150.08078858 115.13993123 150.171875 130.234375 C150.17757507 130.98795288 150.18327515 131.74153076 150.18914795 132.51794434 C150.1985455 134.10797751 150.20511091 135.69802971 150.20898438 137.28808594 C150.21861195 139.66898604 150.24965222 142.04899214 150.28125 144.4296875 C150.35031495 154.42940767 149.3432152 163.47798543 146.96875 173.203125 C146.70094727 174.38841797 146.70094727 174.38841797 146.42773438 175.59765625 C144.50940129 183.95195533 141.8024822 191.55690012 137.96875 199.203125 C137.43121094 200.3375 136.89367187 201.471875 136.33984375 202.640625 C132.81917726 210.00482692 128.83892601 216.65918921 123.96875 223.203125 C123.03025137 224.57744358 122.09264199 225.95237019 121.15625 227.328125 C120.434375 228.276875 119.7125 229.225625 118.96875 230.203125 C118.30875 230.203125 117.64875 230.203125 116.96875 230.203125 C116.5655957 231.09306152 116.5655957 231.09306152 116.15429688 232.00097656 C114.96584268 234.20852533 113.76132611 235.66855382 112 237.4375 C111.42894531 238.01113281 110.85789063 238.58476562 110.26953125 239.17578125 C109.67527344 239.76230469 109.08101562 240.34882813 108.46875 240.953125 C107.87449219 241.55511719 107.28023437 242.15710938 106.66796875 242.77734375 C106.09691406 243.34582031 105.52585938 243.91429687 104.9375 244.5 C104.41607422 245.01916992 103.89464844 245.53833984 103.35742188 246.07324219 C101.96875 247.203125 101.96875 247.203125 99.96875 247.203125 C99.96875 247.863125 99.96875 248.523125 99.96875 249.203125 C90.42701802 257.49858994 78.41153033 263.94924142 66.96875 269.203125 C65.75832031 269.78320312 65.75832031 269.78320312 64.5234375 270.375 C50.7636949 276.58413176 35.03194377 280.31516358 19.9375 280.40625 C19.18392212 280.41195007 18.43034424 280.41765015 17.65393066 280.42352295 C16.06389749 280.4329205 14.47384529 280.43948591 12.88378906 280.44335938 C10.50288896 280.45298695 8.12288286 280.48402722 5.7421875 280.515625 C-4.25753267 280.58468995 -13.30611043 279.5775902 -23.03125 277.203125 C-24.21654297 276.93532227 -24.21654297 276.93532227 -25.42578125 276.66210938 C-33.78008033 274.74377629 -41.38502512 272.0368572 -49.03125 268.203125 C-50.165625 267.66558594 -51.3 267.12804687 -52.46875 266.57421875 C-59.83295192 263.05355226 -66.48731421 259.07330101 -73.03125 254.203125 C-74.40556858 253.26462637 -75.78049519 252.32701699 -77.15625 251.390625 C-78.105 250.66875 -79.05375 249.946875 -80.03125 249.203125 C-80.03125 248.543125 -80.03125 247.883125 -80.03125 247.203125 C-80.92118652 246.7999707 -80.92118652 246.7999707 -81.82910156 246.38867188 C-84.03665033 245.20021768 -85.49667882 243.99570111 -87.265625 242.234375 C-87.83925781 241.66332031 -88.41289063 241.09226563 -89.00390625 240.50390625 C-89.59042969 239.90964844 -90.17695312 239.31539062 -90.78125 238.703125 C-91.38324219 238.10886719 -91.98523438 237.51460937 -92.60546875 236.90234375 C-93.17394531 236.33128906 -93.74242187 235.76023438 -94.328125 235.171875 C-94.84729492 234.65044922 -95.36646484 234.12902344 -95.90136719 233.59179688 C-97.03125 232.203125 -97.03125 232.203125 -97.03125 230.203125 C-97.69125 230.203125 -98.35125 230.203125 -99.03125 230.203125 C-107.32671494 220.66139302 -113.77736642 208.64590533 -119.03125 197.203125 C-119.61132812 195.99269531 -119.61132812 195.99269531 -120.203125 194.7578125 C-126.41225676 180.9980699 -130.14328858 165.26631877 -130.234375 150.171875 C-130.24292511 149.04150818 -130.24292511 149.04150818 -130.25164795 147.88830566 C-130.2610455 146.29827249 -130.26761091 144.70822029 -130.27148438 143.11816406 C-130.28111195 140.73726396 -130.31215222 138.35725786 -130.34375 135.9765625 C-130.41281495 125.97684233 -129.4057152 116.92826457 -127.03125 107.203125 C-126.76344727 106.01783203 -126.76344727 106.01783203 -126.49023438 104.80859375 C-124.57190129 96.45429467 -121.8649822 88.84934988 -118.03125 81.203125 C-117.49371094 80.06875 -116.95617187 78.934375 -116.40234375 77.765625 C-112.88167726 70.40142308 -108.90142601 63.74706079 -104.03125 57.203125 C-103.09275137 55.82880642 -102.15514199 54.45387981 -101.21875 53.078125 C-100.496875 52.129375 -99.775 51.180625 -99.03125 50.203125 C-98.37125 50.203125 -97.71125 50.203125 -97.03125 50.203125 C-96.6280957 49.31318848 -96.6280957 49.31318848 -96.21679688 48.40527344 C-95.02834268 46.19772467 -93.82382611 44.73769618 -92.0625 42.96875 C-91.49144531 42.39511719 -90.92039063 41.82148437 -90.33203125 41.23046875 C-89.73777344 40.64394531 -89.14351562 40.05742188 -88.53125 39.453125 C-87.93699219 38.85113281 -87.34273437 38.24914063 -86.73046875 37.62890625 C-86.15941406 37.06042969 -85.58835938 36.49195313 -85 35.90625 C-84.47857422 35.38708008 -83.95714844 34.86791016 -83.41992188 34.33300781 C-82.03125 33.203125 -82.03125 33.203125 -80.03125 33.203125 C-80.03125 32.543125 -80.03125 31.883125 -80.03125 31.203125 C-70.48951802 22.90766006 -58.47403033 16.45700858 -47.03125 11.203125 C-46.22429687 10.81640625 -45.41734375 10.4296875 -44.5859375 10.03125 C-30.8261949 3.82211824 -15.09444377 0.09108642 0 0 Z " fill="#000000" transform="translate(130.03125,-0.203125)"/>
<path d="M0 0 C1.14210937 -0.020625 2.28421875 -0.04125 3.4609375 -0.0625 C10.36633495 -0.09424895 15.86426068 0.65589972 22.25 3.25 C23.11109375 3.49621094 23.9721875 3.74242187 24.859375 3.99609375 C36.44138728 7.73699918 45.35278688 17.87807417 50.88671875 28.35546875 C55.17624925 37.46303924 57.25 44.02594351 57.25 54.25 C50.32 54.25 43.39 54.25 36.25 54.25 C35.569375 51.65125 34.88875 49.0525 34.1875 46.375 C31.00608829 35.07468592 25.86682082 27.17873735 15.6875 21.0625 C7.889026 16.95057735 -2.19808863 17.04684427 -10.7421875 18.8984375 C-20.23221329 22.35741886 -27.25759033 29.49130791 -31.8359375 38.3515625 C-38.21468206 52.69174764 -38.18213818 68.03672098 -38.03125 83.41552734 C-37.99984989 86.64041706 -37.9902378 89.86481551 -37.984375 93.08984375 C-37.9752107 95.17188089 -37.96483676 97.25391313 -37.953125 99.3359375 C-37.94887512 100.28407318 -37.94462524 101.23220886 -37.94024658 102.20907593 C-37.77947608 117.41334752 -35.20211137 131.28820504 -26.75 144.25 C-26.193125 145.136875 -25.63625 146.02375 -25.0625 146.9375 C-16.8362434 155.1637566 -8.25604649 156.62849198 2.8190918 156.70532227 C11.27772004 156.54366169 17.86997909 154.24457907 24.203125 148.46875 C25.72331467 146.78620998 27.00922379 145.14597157 28.25 143.25 C28.73984375 142.53585938 29.2296875 141.82171875 29.734375 141.0859375 C31.73625891 137.34014441 32.80554282 133.51543328 33.9375 129.4375 C34.700625 126.735625 35.46375 124.03375 36.25 121.25 C43.18 121.25 50.11 121.25 57.25 121.25 C57.25 136.85597473 49.69692508 150.07663937 39.296875 161.37109375 C29.08888677 171.37114147 14.89312361 175.62015535 0.875 175.5 C-0.01960938 175.50773438 -0.91421875 175.51546875 -1.8359375 175.5234375 C-16.90218286 175.47964028 -29.91417501 169.8300045 -40.75 159.25 C-58.34728272 138.62190233 -61.12380941 113.47521271 -61.17553711 87.39770508 C-61.18741517 84.58260511 -61.23678219 81.76971829 -61.28710938 78.95507812 C-61.43418902 62.520675 -58.8778846 47.14978634 -51.75 32.25 C-51.39547256 31.49845139 -51.04094513 30.74690277 -50.67567444 29.97257996 C-44.14607234 16.52529593 -31.70498189 6.21573261 -17.75 1.25 C-11.86710873 -0.13774922 -6.01478702 0.02679192 0 0 Z " fill="#FBFBFB" transform="translate(141.75,52.75)"/>
</svg>
