<?xml version="1.0" encoding="UTF-8"?>
<svg version="1.1" xmlns="http://www.w3.org/2000/svg" width="360" height="140">
<path d="M0 0 C118.8 0 237.6 0 360 0 C360 46.2 360 92.4 360 140 C241.2 140 122.4 140 0 140 C0 93.8 0 47.6 0 0 Z " fill="#FAFAFA" transform="translate(0,0)"/>
<path d="M0 0 C26.8228125 -0.1546875 26.8228125 -0.1546875 54.1875 -0.3125 C59.83254639 -0.35802002 65.47759277 -0.40354004 71.29370117 -0.45043945 C78.19006348 -0.47302246 78.19006348 -0.47302246 81.41914368 -0.47721863 C83.6731408 -0.48489375 85.92711747 -0.5024736 88.1809845 -0.52787781 C91.59652334 -0.56444927 95.01080853 -0.56953121 98.42651367 -0.56762695 C99.42967463 -0.58561749 100.4328356 -0.60360804 101.46639538 -0.62214375 C105.80049978 -0.58977115 108.34535469 -0.38785747 112.12536621 1.85168457 C114.9041419 6.51844265 114.66002368 10.60208432 114.56762695 15.94067383 C114.56835709 17.04355743 114.56908722 18.14644104 114.56983948 19.28274536 C114.56635872 22.92467592 114.52747152 26.56532437 114.48828125 30.20703125 C114.47895494 32.7333659 114.47183797 35.25970959 114.46684265 37.78605652 C114.44970887 43.75373703 114.41031158 49.72086801 114.3600952 55.68832844 C114.30415496 62.48389696 114.27670361 69.27948774 114.25161803 76.07522929 C114.19939345 90.05045375 114.10772106 104.02509878 114 118 C98.49 118 82.98 118 67 118 C66.98582031 112.64394531 66.97164063 107.28789063 66.95703125 101.76953125 C66.93697171 98.37428308 66.91545225 94.97916993 66.88867188 91.58398438 C66.84631312 86.19615402 66.80933377 80.80866592 66.80444336 75.4206543 C66.8001616 71.07611332 66.77170982 66.73233858 66.72656822 62.38803673 C66.71358916 60.73151807 66.70928702 59.07490773 66.71384621 57.4183445 C66.71874971 55.09552135 66.69267609 52.77493993 66.65942383 50.45239258 C66.67236229 49.42739906 66.67236229 49.42739906 66.68556213 48.38169861 C66.59427014 44.57215244 66.04897912 43.06000175 63.60575867 40.06694031 C60.82234177 37.85907791 59.84110796 37.39869055 56.375 37.625 C55.24191406 37.67527344 55.24191406 37.67527344 54.0859375 37.7265625 C51.81006177 37.95762331 51.81006177 37.95762331 49 39 C47.83339635 42.49981095 47.82463624 45.67415346 47.79467773 49.31713867 C47.78477814 50.05884811 47.77487854 50.80055756 47.76467896 51.56474304 C47.73309743 54.01578583 47.70831979 56.466848 47.68359375 58.91796875 C47.66302133 60.61762495 47.64202478 62.31727607 47.62062073 64.016922 C47.5654298 68.49014163 47.51600738 72.96340721 47.46777344 77.43670654 C47.40870391 82.80405452 47.34249231 88.17131854 47.27747345 93.53859711 C47.17950139 101.69234679 47.09061975 109.84615035 47 118 C31.49 118 15.98 118 0 118 C0 79.06 0 40.12 0 0 Z " fill="#1B1B1B" transform="translate(4,11)"/>
<path d="M0 0 C10.3125 -0.061875 20.625 -0.12375 31.25 -0.1875 C36.09800293 -0.22846802 36.09800293 -0.22846802 41.04394531 -0.27026367 C43.63866809 -0.27903497 46.23339503 -0.28667738 48.828125 -0.29296875 C49.4851239 -0.30080887 50.1421228 -0.30864899 50.81903076 -0.31672668 C66.93856806 -0.4991303 81.03357831 2.74887173 93.1484375 13.94140625 C102.13468598 23.93244622 105.37992923 34.25154758 105.2890625 47.47265625 C104.65247629 55.24072854 102.20084607 62.45197633 98 69 C101.3 69 104.6 69 108 69 C108 85.17 108 101.34 108 118 C92.49 118 76.98 118 61 118 C61 108.43 61 98.86 61 89 C55.39 89 49.78 89 44 89 C44 98.57 44 108.14 44 118 C29.48 118 14.96 118 0 118 C0 79.06 0 40.12 0 0 Z " fill="#1B1B1B" transform="translate(248,11)"/>
<path d="M0 0 C1.09062744 0.00241699 2.18125488 0.00483398 3.30493164 0.00732422 C12.85455324 0.22322257 20.36834994 2.22093228 28.8125 6.5625 C29.76125 7.04203125 30.71 7.5215625 31.6875 8.015625 C46.43158447 16.19679382 56.3042079 29.57411517 61.625 45.4375 C64.79286811 58.25462156 63.92937028 72.4435967 58.8125 84.5625 C58.461875 85.42875 58.11125 86.295 57.75 87.1875 C51.25438082 101.62220929 39.05571413 112.61850087 24.484375 118.56640625 C23.60265625 118.89511719 22.7209375 119.22382812 21.8125 119.5625 C21.03390625 119.88089844 20.2553125 120.19929688 19.453125 120.52734375 C5.51582108 125.34325928 -12.65515749 123.99749204 -26.1875 118.5625 C-31.18977627 116.064144 -36.20686868 113.54313132 -40.1875 109.5625 C-40.40220237 106.54103652 -40.49162345 103.61018074 -40.49389648 100.58642578 C-40.50222 99.65621613 -40.51054352 98.72600647 -40.51911926 97.76760864 C-40.54328923 94.68096782 -40.55199994 91.59453803 -40.55859375 88.5078125 C-40.5675548 86.36790908 -40.57667654 84.22800633 -40.58595276 82.08810425 C-40.60246438 77.59729487 -40.61014682 73.10656023 -40.61303711 68.61572266 C-40.61842292 62.85616164 -40.65610227 57.09730133 -40.70178127 51.33793831 C-40.73149799 46.91646753 -40.7387595 42.49516656 -40.73976326 38.07360458 C-40.74397633 35.95006984 -40.75645386 33.82653508 -40.77728081 31.7030983 C-40.804083 28.73399345 -40.79940288 25.76652659 -40.78686523 22.79736328 C-40.80169952 21.91721558 -40.81653381 21.03706787 -40.83181763 20.13024902 C-40.75990451 14.16157148 -40.75990451 14.16157148 -37.82044983 11.08517456 C-36.95157639 10.58269196 -36.08270294 10.08020935 -35.1875 9.5625 C-34.28773437 9.03527344 -33.38796875 8.50804687 -32.4609375 7.96484375 C-31.02621094 7.23974609 -31.02621094 7.23974609 -29.5625 6.5 C-28.62148437 6.01402344 -27.68046875 5.52804688 -26.7109375 5.02734375 C-17.88571847 1.35832253 -9.53269482 -0.02221556 0 0 Z " fill="#1B1B1B" transform="translate(160.1875,8.4375)"/>
<path d="M0 0 C5.76573685 -0.09891077 11.5309794 -0.17148845 17.29736328 -0.21972656 C19.25871381 -0.23983632 21.22000444 -0.26712818 23.18115234 -0.30175781 C26.00112695 -0.35030421 28.82030865 -0.37297486 31.640625 -0.390625 C32.95489471 -0.42159271 32.95489471 -0.42159271 34.29571533 -0.45318604 C35.11626404 -0.45348816 35.93681274 -0.45379028 36.78222656 -0.45410156 C37.86144379 -0.46742523 37.86144379 -0.46742523 38.96246338 -0.48101807 C42.19823413 0.28287701 43.14099108 1.20422136 45 4 C45.58594744 7.6378862 45.50438793 11.24180763 45.45410156 14.91894531 C45.45468567 16.03143646 45.45526978 17.14392761 45.45587158 18.29013062 C45.45308337 21.96977872 45.42195497 25.64861828 45.390625 29.328125 C45.38316527 31.87831174 45.37747108 34.42850421 45.37347412 36.97869873 C45.35975855 43.00652537 45.32822882 49.03400458 45.28807616 55.061692 C45.24335073 61.92497463 45.22136954 68.7882712 45.20129442 75.6516633 C45.15949552 89.76796588 45.0861465 103.88390198 45 118 C30.15 118 15.3 118 0 118 C0 109 0 109 1.72265625 106.72265625 C2.49480469 106.17480469 3.26695312 105.62695312 4.0625 105.0625 C14.53535826 96.75984156 21.12173937 83.94877064 24 71 C24.42060155 67.05203473 24.47771085 63.1553931 24.4375 59.1875 C24.42920166 58.13014648 24.42090332 57.07279297 24.41235352 55.98339844 C24.03092603 38.33185738 16.63409105 24.307146 4 12 C2.87658203 11.39865234 2.87658203 11.39865234 1.73046875 10.78515625 C0 9 0 9 -0.16899109 6.85691833 C-0.14891495 6.04231644 -0.12883881 5.22771454 -0.1081543 4.38842773 C-0.09253952 3.56922348 -0.07692474 2.75001923 -0.06083679 1.9059906 C-0.04076065 1.2770137 -0.02068451 0.6480368 0 0 Z " fill="#1A1A1A" transform="translate(200,11)"/>
<path d="M0 0 C4.64725089 3.16858015 8.45620468 7.31168012 9.75 12.875 C9.84002689 18.92930802 8.71286966 23.14157235 4.75 27.875 C0.00388202 32.15808208 -3.64851683 33.23760059 -9.90234375 33.15625 C-14.94384592 32.55227636 -18.24185547 29.98926501 -21.625 26.25 C-25.15858913 21.08552358 -24.82707977 15.99845754 -24.25 9.875 C-22.09062362 5.39629344 -19.32047061 2.69301812 -15.25 -0.125 C-10.0828841 -1.84737197 -5.14400242 -1.78061622 0 0 Z " fill="#FCFCFC" transform="translate(167.25,54.125)"/>
<path d="M0 0 C3.50252011 2.04313673 5.77361702 4.09787233 7 8 C7.480151 12.32135899 7.29173086 14.4668367 5.1875 18.3125 C2.92222769 21.09554884 1.34503374 22.78007194 -2.26953125 23.37109375 C-6.75791286 23.48830187 -9.98845813 23.56577717 -13.5625 20.625 C-16.89128217 17.04015766 -17.34272308 15.02044936 -17.2890625 10.1015625 C-16.82122304 6.70024318 -15.15733871 4.58880645 -13 2 C-8.7567553 -0.8288298 -4.98265471 -0.65268001 0 0 Z " fill="#FAFAFA" transform="translate(303,45)"/>
<path d="M0 0 C12.18535048 7.00657653 20.64315455 20.66605773 24.3359375 33.9921875 C27.65596071 50.98605291 25.61891193 67.92761285 16.75 82.8125 C12.41066411 89.16924643 7.4462373 95.70250847 1 100 C0.67 102.97 0.34 105.94 0 109 C14.85 109 29.7 109 45 109 C45 109.33 45 109.66 45 110 C29.82 110 14.64 110 -1 110 C-1 98 -1 98 2.5625 94.375 C3.29210937 93.84261719 4.02171875 93.31023437 4.7734375 92.76171875 C13.96624079 85.48811474 20.26649876 71.39346997 22 60 C23.73625624 41.12085363 20.07346685 25.62292451 8.1015625 10.62109375 C5.52929084 7.58754975 3.32736989 5.2182466 0 3 C0 2.01 0 1.02 0 0 Z " fill="#E7E7E7" transform="translate(200,20)"/>
<path d="M0 0 C1 3 1 3 0.06640625 4.9453125 C-9.31637168 18.54424779 -9.31637168 18.54424779 -16 23 C-16.33 25.97 -16.66 28.94 -17 32 C-2.15 32 12.7 32 28 32 C28 32.33 28 32.66 28 33 C12.82 33 -2.36 33 -18 33 C-18 21 -18 21 -14.4375 17.375 C-13.71046875 16.85035156 -12.9834375 16.32570313 -12.234375 15.78515625 C-8.24435789 12.59732789 -5.79216917 8.22006328 -3 4 C-2.00986031 2.65932809 -1.01309426 1.32341142 0 0 Z " fill="#CECECE" transform="translate(217,97)"/>
<path d="M0 0 C7.52837586 4.32881612 13.68904411 10.92954503 17 19 C16.01 19 15.02 19 14 19 C12.16796875 16.76953125 12.16796875 16.76953125 10.1875 13.8125 C7.84819432 10.44407279 5.76271263 7.50322133 2.5 5 C1.675 4.34 0.85 3.68 0 3 C0 2.01 0 1.02 0 0 Z " fill="#E9E9E9" transform="translate(200,20)"/>
<path d="M0 0 C1.34320982 4.02962945 0.02920742 6.71918092 -1.3125 10.5625 C-1.53873047 11.24763672 -1.76496094 11.93277344 -1.99804688 12.63867188 C-3.01597015 15.62790479 -3.73901487 17.73901487 -6 20 C-7.37370421 16.29012366 -6.59409863 14.11838799 -5.1875 10.5 C-4.83042969 9.5615625 -4.47335938 8.623125 -4.10546875 7.65625 C-1.5743073 1.5743073 -1.5743073 1.5743073 0 0 Z " fill="#D7D7D7" transform="translate(224,79)"/>
<path d="M0 0 C0.99 0 1.98 0 3 0 C3.86366822 1.78710586 4.71568594 3.5798465 5.5625 5.375 C6.27599609 6.87160156 6.27599609 6.87160156 7.00390625 8.3984375 C7.33261719 9.25695313 7.66132813 10.11546875 8 11 C7.67 11.66 7.34 12.32 7 13 C6.34 13 5.68 13 5 13 C4.35309078 11.3962669 3.70751236 9.79199694 3.0625 8.1875 C2.70285156 7.29417969 2.34320313 6.40085937 1.97265625 5.48046875 C1.26386514 3.6729091 0.6139753 1.84192591 0 0 Z " fill="#DBDBDB" transform="translate(215,39)"/>
<path d="M0 0 C0.33 0.99 0.66 1.98 1 3 C-0.21484375 5.26171875 -0.21484375 5.26171875 -1.9375 7.6875 C-2.78634766 8.89986328 -2.78634766 8.89986328 -3.65234375 10.13671875 C-4.09707031 10.75160156 -4.54179687 11.36648437 -5 12 C-5.66 11.34 -6.32 10.68 -7 10 C-3.535 5.05 -3.535 5.05 0 0 Z " fill="#E9E9E9" transform="translate(217,97)"/>
</svg>
