<?xml version="1.0" encoding="UTF-8"?>
<svg version="1.1" xmlns="http://www.w3.org/2000/svg" width="960" height="500">
<path d="M0 0 C316.8 0 633.6 0 960 0 C960 165 960 330 960 500 C643.2 500 326.4 500 0 500 C0 335 0 170 0 0 Z " fill="#0970BD" transform="translate(0,0)"/>
<path d="M0 0 C15.96995743 3.82725034 30.12683956 14.20819218 41.5703125 25.58496094 C42.88084051 26.88206141 44.22037557 28.14968308 45.5625 29.4140625 C66.22140551 49.16565121 77.75024988 78.85458573 78.42114258 107.14575195 C78.4771459 117.77384587 77.55884365 127.68131421 75 138 C74.69255859 139.41345703 74.69255859 139.41345703 74.37890625 140.85546875 C69.80358201 160.09456507 59.24089506 177.5701461 46 192 C45.22011719 192.87398437 44.44023438 193.74796875 43.63671875 194.6484375 C30.35764947 208.79789955 12.6320772 218.44834788 -5.6875 224.375 C-6.42266846 224.61387939 -7.15783691 224.85275879 -7.9152832 225.09887695 C-22.4070381 229.49943952 -36.808582 229.2675537 -51.80078125 229.1953125 C-54.09148535 229.19157596 -56.38219106 229.18873202 -58.67289734 229.18673706 C-64.66181966 229.17915105 -70.65064284 229.15954648 -76.63952637 229.1373291 C-82.76683207 229.11676152 -88.894154 229.10771214 -95.02148438 229.09765625 C-107.01436614 229.07629527 -119.00717478 229.04222101 -131 229 C-129.53028926 225.23283763 -127.8497922 221.80946736 -125.83203125 218.30078125 C-125.19386475 217.18751465 -124.55569824 216.07424805 -123.89819336 214.92724609 C-123.20304466 213.72228318 -122.5078113 212.5173691 -121.8125 211.3125 C-121.09031382 210.05565201 -120.3683941 208.79865088 -119.64672852 207.54150391 C-117.79256933 204.31362852 -115.93436047 201.08810651 -114.07458496 197.86346436 C-112.42607817 195.00474796 -110.77968312 192.14481546 -109.1328125 189.28515625 C-106.04520824 183.92721891 -102.95279067 178.57207499 -99.85888672 173.21777344 C-96.73675395 167.81329355 -93.61858796 162.40652588 -90.5 157 C-89.25001878 154.8333225 -88.00001879 152.66665583 -86.75 150.5 C-86.13125 149.4275 -85.5125 148.355 -84.875 147.25 C-79.25 137.5 -79.25 137.5 -77.37524414 134.25048828 C-76.1243552 132.08223736 -74.87354148 129.91394303 -73.62280273 127.74560547 C-70.51201665 122.35282085 -67.39995762 116.96077907 -64.28515625 111.5703125 C-57.46497363 99.76370516 -50.6767674 87.93973 -43.92263794 76.09527588 C-38.77168833 67.06554583 -33.55716682 58.07473551 -28.30419922 49.10400391 C-23.00214297 40.03569067 -17.78958805 30.91739348 -12.59179688 21.7890625 C-8.43904022 14.49933139 -4.24192338 7.23819609 0 0 Z " fill="#0C79CB" transform="translate(481,138)"/>
<path d="M0 0 C19.80951462 2.27649664 40.59940395 22.09386513 52.55664062 36.93164062 C68.95730934 58.49110421 77.16187582 82.06590874 77.24023438 109.09960938 C77.2498813 111.10038217 77.28105719 113.10101353 77.3125 115.1015625 C77.43269446 145.63095583 63.57921966 173.38518834 42.8125 195.18359375 C22.25830293 215.76633831 -7.17936289 229.06320147 -36.38500977 229.32958984 C-37.45420654 229.3239502 -38.52340332 229.31831055 -39.625 229.3125 C-40.75800537 229.30686035 -41.89101074 229.3012207 -43.05834961 229.29541016 C-70.12127431 228.9080573 -94.76012835 219.83592418 -116 203 C-114.7423893 198.89102713 -113.22023808 195.34593014 -111.05078125 191.640625 C-110.16132812 190.11115234 -110.16132812 190.11115234 -109.25390625 188.55078125 C-108.29291016 186.91689453 -108.29291016 186.91689453 -107.3125 185.25 C-106.63743361 184.09279028 -105.96296538 182.93523143 -105.2890625 181.77734375 C-103.88984195 179.37429418 -102.48807065 176.9727608 -101.08447266 174.57226562 C-97.86550635 169.06213188 -94.68480155 163.52992383 -91.5 158 C-90.25017876 155.83323021 -89.0001782 153.66656385 -87.75 151.5 C-87.13125 150.4275 -86.5125 149.355 -85.875 148.25 C-69 119 -52.125 89.75 -35.25 60.5 C-34.3211499 58.88992065 -34.3211499 58.88992065 -33.37353516 57.24731445 C-32.12858718 55.08950197 -30.8834711 52.93178647 -29.63818359 50.77416992 C-26.43447349 45.22283408 -23.2340637 39.66963459 -20.0390625 34.11328125 C-13.46078718 22.67967041 -6.86060273 11.26700611 0 0 Z " fill="#128AE4" transform="translate(225,138)"/>
<path d="M0 0 C2.45718403 0.03155292 4.91372576 0.04102412 7.37109375 0.046875 C8.94401825 0.05603246 10.51693626 0.06640419 12.08984375 0.078125 C12.81901001 0.08237488 13.54817627 0.08662476 14.29943848 0.09100342 C17.64454334 0.1381468 20.73402153 0.24852908 23.93359375 1.28125 C22.2786705 5.94595124 19.8443458 9.99614469 17.30859375 14.21875 C16.39773278 15.75088334 15.48758518 17.283441 14.578125 18.81640625 C14.12775879 19.57453613 13.67739258 20.33266602 13.21337891 21.11376953 C11.44362349 24.11107753 9.71730686 27.13076361 7.99609375 30.15625 C4.95318721 35.50107586 1.88988995 40.8334586 -1.19140625 46.15625 C-1.65039307 46.94918457 -2.10937988 47.74211914 -2.58227539 48.55908203 C-5.18675491 53.05310326 -7.80140599 57.54100456 -10.42578125 62.0234375 C-16.7601813 72.84566509 -23.02257184 83.70132267 -29.16918945 94.63134766 C-33.66526046 102.61029056 -38.26913388 110.52324001 -42.89746094 118.42602539 C-46.74506081 125.00052852 -50.54811384 131.59849692 -54.31640625 138.21875 C-58.24349003 145.11700382 -62.22399348 151.97936951 -66.26733398 158.81005859 C-70.21102833 165.48862784 -74.04865755 172.2268755 -77.86914062 178.9765625 C-80.81317431 184.15966398 -83.85971556 189.25617912 -87.06640625 194.28125 C-91.39382813 192.37764019 -93.36168769 189.4683449 -95.87890625 185.59375 C-96.53258179 184.60084961 -96.53258179 184.60084961 -97.19946289 183.58789062 C-101.55859222 176.7979396 -104.89213706 169.69068473 -108.06640625 162.28125 C-108.56914063 161.16621094 -109.071875 160.05117188 -109.58984375 158.90234375 C-118.78350551 136.35598278 -119.67731098 107.43473028 -112.06640625 84.28125 C-111.75292236 83.27916504 -111.75292236 83.27916504 -111.43310547 82.25683594 C-101.5110283 51.11563494 -79.28440849 26.33208016 -50.48535156 11.28637695 C-43.96274553 8.0406605 -37.26376163 5.6786791 -30.21044922 3.8515625 C-28.65183374 3.43697291 -27.10489073 2.97771238 -25.56689453 2.4921875 C-17.00793415 -0.01706 -8.83663256 -0.11457546 0 0 Z " fill="#FAFDFE" transform="translate(182.06640625,130.71875)"/>
<path d="M0 0 C18.68625 -0.020625 37.3725 -0.04125 56.625 -0.0625 C65.47046631 -0.07615601 65.47046631 -0.07615601 74.49462891 -0.09008789 C81.70385742 -0.09460449 81.70385742 -0.09460449 85.08041382 -0.09544373 C87.43515207 -0.09697779 89.78988954 -0.10049171 92.1446228 -0.10557556 C95.71443036 -0.11289648 99.28418997 -0.11390594 102.85400391 -0.11352539 C104.42361091 -0.11892255 104.42361091 -0.11892255 106.02492714 -0.12442875 C110.79814524 -0.11761849 115.30749376 -0.0041604 120 1 C118.42878179 5.2821802 116.31829167 9.17552361 114.0625 13.125 C113.66844971 13.82020752 113.27439941 14.51541504 112.8684082 15.23168945 C109.38221934 21.36670162 105.84523739 27.47245233 102.30126953 33.57421875 C98.81748101 39.57467969 95.37187892 45.59614788 91.9375 51.625 C88.39579022 57.83765524 84.82650976 64.03132013 81.1875 70.1875 C75.02626482 80.61140644 68.99801719 91.11193149 62.95556641 101.60498047 C59.80667946 107.0716998 56.65316736 112.53574887 53.5 118 C52.2499765 120.16665311 50.99997653 122.33331979 49.75 124.5 C33.5 152.66666667 17.25 180.83333333 1 209 C0.67 209 0.34 209 0 209 C0 140.03 0 71.06 0 0 Z " fill="#FCFDFE" transform="translate(342,131)"/>
<path d="M0 0 C15.96995743 3.82725034 30.12683956 14.20819218 41.5703125 25.58496094 C42.88084051 26.88206141 44.22037557 28.14968308 45.5625 29.4140625 C66.22140551 49.16565121 77.75024988 78.85458573 78.42114258 107.14575195 C78.4771459 117.77384587 77.55884365 127.68131421 75 138 C74.69255859 139.41345703 74.69255859 139.41345703 74.37890625 140.85546875 C69.80358201 160.09456507 59.24089506 177.5701461 46 192 C45.22011719 192.87398437 44.44023438 193.74796875 43.63671875 194.6484375 C30.35764947 208.79789955 12.6320772 218.44834788 -5.6875 224.375 C-6.42266846 224.61387939 -7.15783691 224.85275879 -7.9152832 225.09887695 C-22.4070381 229.49943952 -36.808582 229.2675537 -51.80078125 229.1953125 C-54.09148535 229.19157596 -56.38219106 229.18873202 -58.67289734 229.18673706 C-64.66181966 229.17915105 -70.65064284 229.15954648 -76.63952637 229.1373291 C-82.76683207 229.11676152 -88.894154 229.10771214 -95.02148438 229.09765625 C-107.01436614 229.07629527 -119.00717478 229.04222101 -131 229 C-129.53028926 225.23283763 -127.8497922 221.80946736 -125.83203125 218.30078125 C-125.19386475 217.18751465 -124.55569824 216.07424805 -123.89819336 214.92724609 C-123.20304466 213.72228318 -122.5078113 212.5173691 -121.8125 211.3125 C-121.09031382 210.05565201 -120.3683941 208.79865088 -119.64672852 207.54150391 C-117.79256933 204.31362852 -115.93436047 201.08810651 -114.07458496 197.86346436 C-112.42607817 195.00474796 -110.77968312 192.14481546 -109.1328125 189.28515625 C-106.04520824 183.92721891 -102.95279067 178.57207499 -99.85888672 173.21777344 C-96.73675395 167.81329355 -93.61858796 162.40652588 -90.5 157 C-89.25001878 154.8333225 -88.00001879 152.66665583 -86.75 150.5 C-86.13125 149.4275 -85.5125 148.355 -84.875 147.25 C-79.25 137.5 -79.25 137.5 -77.37524414 134.25048828 C-76.1243552 132.08223736 -74.87354148 129.91394303 -73.62280273 127.74560547 C-70.51201665 122.35282085 -67.39995762 116.96077907 -64.28515625 111.5703125 C-57.46497363 99.76370516 -50.6767674 87.93973 -43.92263794 76.09527588 C-38.77168833 67.06554583 -33.55716682 58.07473551 -28.30419922 49.10400391 C-23.00214297 40.03569067 -17.78958805 30.91739348 -12.59179688 21.7890625 C-8.43904022 14.49933139 -4.24192338 7.23819609 0 0 Z M8 27 C2.97268575 32.35620396 -0.25134452 39.96738058 -3.77490234 46.38427734 C-7.31380062 52.81523404 -10.97719444 59.16658027 -14.6875 65.5 C-19.63168268 73.94268607 -24.55228593 82.39803535 -29.4375 90.875 C-30.05971436 91.95458984 -30.68192871 93.03417969 -31.32299805 94.14648438 C-32.58511517 96.3368252 -33.84707785 98.52725502 -35.10888672 100.71777344 C-38.23680148 106.14659942 -41.36858448 111.57319281 -44.5 117 C-45.75001879 119.16665583 -47.00001878 121.3333225 -48.25 123.5 C-70.75 162.5 -70.75 162.5 -72.62866211 165.75585938 C-73.86701979 167.90266914 -75.1048213 170.04979984 -76.34204102 172.19726562 C-79.28347196 177.30118224 -82.23073772 182.40148134 -85.19747925 187.49072266 C-86.60697037 189.90938314 -88.01332765 192.32985862 -89.41943359 194.75048828 C-90.41978682 196.46956052 -91.42469734 198.1859782 -92.4296875 199.90234375 C-93.02910156 200.93488281 -93.62851562 201.96742188 -94.24609375 203.03125 C-94.77904053 203.94455078 -95.3119873 204.85785156 -95.86108398 205.79882812 C-97.15318117 207.88299111 -97.15318117 207.88299111 -97 210 C-88.54064809 210.070106 -80.08142145 210.12311409 -71.62184906 210.15543652 C-67.69196673 210.1709647 -63.76228593 210.19196166 -59.83251953 210.22631836 C-56.02640357 210.25937843 -52.22047903 210.27694902 -48.41423035 210.28463173 C-46.9760589 210.29009298 -45.53789561 210.30075153 -44.09980774 210.31719017 C-15.3320711 210.63237127 9.78639095 200.54523027 30.6875 180.75 C50.01029161 160.5408418 58.79897723 134.74091901 58.25390625 107.0078125 C57.97971816 99.80176363 56.72752061 92.99943697 55 86 C54.58234375 84.30617188 54.58234375 84.30617188 54.15625 82.578125 C47.60673668 58.97729251 30.99049951 40.32699967 11 27 C10.01 27 9.02 27 8 27 Z " fill="#FBFDFE" transform="translate(481,138)"/>
<path d="M0 0 C19.80951462 2.27649664 40.59940395 22.09386513 52.55664062 36.93164062 C68.95730934 58.49110421 77.16187582 82.06590874 77.24023438 109.09960938 C77.2498813 111.10038217 77.28105719 113.10101353 77.3125 115.1015625 C77.43269446 145.63095583 63.57921966 173.38518834 42.8125 195.18359375 C22.25830293 215.76633831 -7.17936289 229.06320147 -36.38500977 229.32958984 C-37.45420654 229.3239502 -38.52340332 229.31831055 -39.625 229.3125 C-40.75800537 229.30686035 -41.89101074 229.3012207 -43.05834961 229.29541016 C-70.12127431 228.9080573 -94.76012835 219.83592418 -116 203 C-114.7423893 198.89102713 -113.22023808 195.34593014 -111.05078125 191.640625 C-110.16132812 190.11115234 -110.16132812 190.11115234 -109.25390625 188.55078125 C-108.29291016 186.91689453 -108.29291016 186.91689453 -107.3125 185.25 C-106.63743361 184.09279028 -105.96296538 182.93523143 -105.2890625 181.77734375 C-103.88984195 179.37429418 -102.48807065 176.9727608 -101.08447266 174.57226562 C-97.86550635 169.06213188 -94.68480155 163.52992383 -91.5 158 C-90.25017876 155.83323021 -89.0001782 153.66656385 -87.75 151.5 C-87.13125 150.4275 -86.5125 149.355 -85.875 148.25 C-69 119 -52.125 89.75 -35.25 60.5 C-34.3211499 58.88992065 -34.3211499 58.88992065 -33.37353516 57.24731445 C-32.12858718 55.08950197 -30.8834711 52.93178647 -29.63818359 50.77416992 C-26.43447349 45.22283408 -23.2340637 39.66963459 -20.0390625 34.11328125 C-13.46078718 22.67967041 -6.86060273 11.26700611 0 0 Z M8 26 C6.72280485 27.67495181 6.72280485 27.67495181 5.48828125 29.8984375 C4.98578857 30.75646973 4.4832959 31.61450195 3.96557617 32.49853516 C3.42006104 33.44776855 2.8745459 34.39700195 2.3125 35.375 C1.73798096 36.36161621 1.16346191 37.34823242 0.5715332 38.36474609 C-1.2932278 41.57216514 -3.14697687 44.78578778 -5 48 C-6.21054982 50.08876639 -7.42148502 52.17730949 -8.6328125 54.265625 C-15.49600938 66.11640798 -22.29097512 78.00588506 -29.07580566 89.90161133 C-34.2596615 98.98759696 -39.50183669 108.03803344 -44.78369141 117.06738281 C-49.02640117 124.32240449 -53.24007128 131.59369058 -57.4375 138.875 C-58.05657227 139.94886963 -58.67564453 141.02273926 -59.31347656 142.12915039 C-61.86322796 146.55350496 -64.41182081 150.97852587 -66.95996094 155.40380859 C-68.9102045 158.79038672 -70.86126012 162.17649584 -72.8125 165.5625 C-73.43318359 166.64063965 -74.05386719 167.7187793 -74.69335938 168.82958984 C-77.4909676 173.68211147 -80.30110853 178.52553671 -83.1640625 183.33984375 C-83.63739014 184.13640381 -84.11071777 184.93296387 -84.59838867 185.75366211 C-85.4642552 187.2061394 -86.33395536 188.65634118 -87.20825195 190.10375977 C-89.30446006 193.32632422 -89.30446006 193.32632422 -90 197 C-80.17820872 201.95965631 -70.75723342 205.58934287 -60 208 C-58.84697388 208.26478149 -58.84697388 208.26478149 -57.6706543 208.53491211 C-52.47881227 209.43905865 -47.1936452 209.1846573 -41.9375 209.1875 C-40.77283203 209.19974609 -39.60816406 209.21199219 -38.40820312 209.22460938 C-11.42950427 209.26969912 11.87618549 197.98813024 30.78515625 179.23828125 C49.47067977 159.48179259 58.60362109 134.07585265 58.42138672 107.11621094 C57.55748933 79.20832046 44.11022742 55.59907282 24.515625 36.58984375 C17.18833414 29.36909214 17.18833414 29.36909214 8 26 Z " fill="#FBFDFE" transform="translate(225,138)"/>
<path d="M0 0 C6.6 0 13.2 0 20 0 C20 22.11 20 44.22 20 67 C21.65 67.66 23.3 68.32 25 69 C26.77107373 69.9517969 28.52403791 70.9377422 30.26171875 71.94921875 C31.28458984 72.5421875 32.30746094 73.13515625 33.36132812 73.74609375 C34.45896484 74.38675781 35.55660156 75.02742188 36.6875 75.6875 C37.84940348 76.3623338 39.01151671 77.03680656 40.17382812 77.7109375 C42.5872404 79.11107089 44.9997446 80.51275019 47.41162109 81.91552734 C52.93267071 85.12491268 58.46701601 88.31125063 64 91.5 C66.16672909 92.7498918 68.33339556 93.99989215 70.5 95.25 C71.5725 95.86875 72.645 96.4875 73.75 97.125 C109.5 117.75 109.5 117.75 112.7512207 119.62573242 C114.91378583 120.8733474 117.07638339 122.12090616 119.23901367 123.3684082 C124.71870371 126.52943449 130.19779358 129.69149309 135.67578125 132.85546875 C136.78759766 133.49742187 137.89941406 134.139375 139.04492188 134.80078125 C141.10764131 135.99180754 143.17016747 137.18316869 145.23242188 138.375 C155.46885408 144.28455277 165.73715239 150.13551565 176 156 C176.495 78.78 176.495 78.78 177 0 C183.6 0 190.2 0 197 0 C197 63.03 197 126.06 197 191 C193.28770017 189.51508007 190.09399307 188.03192692 186.640625 186.09375 C185.10450562 185.23342163 185.10450562 185.23342163 183.53735352 184.35571289 C182.45252686 183.74332764 181.3677002 183.13094238 180.25 182.5 C179.12327881 181.86634521 177.99655762 181.23269043 176.83569336 180.57983398 C170.04482257 176.74999436 163.29015254 172.86664399 156.5847168 168.8894043 C150.27275475 165.14695337 143.92058399 161.47596521 137.5625 157.8125 C136.45527588 157.17449463 135.34805176 156.53648926 134.20727539 155.87915039 C131.93662932 154.57110523 129.66587642 153.26324552 127.39501953 151.95556641 C121.9283002 148.80667946 116.46425113 145.65316736 111 142.5 C108.83334689 141.2499765 106.66668021 139.99997653 104.5 138.75 C91.5 131.25 78.5 123.75 65.5 116.25 C64.42693604 115.63092773 63.35387207 115.01185547 62.24829102 114.37402344 C60.08731012 113.12729744 57.92634002 111.88055273 55.76538086 110.63378906 C50.26181149 107.45854117 44.75803968 104.28364505 39.25390625 101.109375 C33.84468656 97.98980326 28.43634189 94.8687185 23.02832031 91.74707031 C20.07967302 90.04596421 17.12977955 88.34703651 14.1796875 86.6484375 C12.43225586 85.64068708 10.68485788 84.6328783 8.9375 83.625 C8.13965088 83.16641602 7.34180176 82.70783203 6.51977539 82.23535156 C1.11356803 79.11356803 1.11356803 79.11356803 0 78 C-0.09498646 75.56603981 -0.12558417 73.16057048 -0.11352539 70.72631836 C-0.11367142 69.96539383 -0.11381744 69.2044693 -0.1139679 68.42048645 C-0.11326862 65.89357702 -0.10547555 63.36674038 -0.09765625 60.83984375 C-0.09579212 59.0924941 -0.0943682 57.34514393 -0.09336853 55.59779358 C-0.08954293 50.98968066 -0.07971229 46.38159905 -0.06866455 41.77349854 C-0.05845134 37.07491479 -0.0538711 32.37632601 -0.04882812 27.67773438 C-0.03809005 18.45180692 -0.02049292 9.22591096 0 0 Z " fill="#FAFCFD" transform="translate(697,130)"/>
<path d="M0 0 C25.74 0 51.48 0 78 0 C78 6.6 78 13.2 78 20 C68.43 20 58.86 20 49 20 C49 85.01 49 150.02 49 217 C58.57 217 68.14 217 78 217 C78 223.6 78 230.2 78 237 C52.26 237 26.52 237 0 237 C0 230.4 0 223.8 0 217 C9.57 217 19.14 217 29 217 C29 151.99 29 86.98 29 20 C19.43 20 9.86 20 0 20 C0 13.4 0 6.8 0 0 Z " fill="#FCFDFE" transform="translate(579,131)"/>
<path d="M0 0 C15.94006309 7.97003155 15.94006309 7.97003155 21.75 11.5 C23.19068419 12.36058494 24.63214485 13.21987082 26.07421875 14.078125 C26.85200684 14.54154297 27.62979492 15.00496094 28.43115234 15.48242188 C33.450218 18.4474962 38.50940199 21.34344613 43.5625 24.25 C52.01688522 29.11736106 60.4552679 34.01045483 68.875 38.9375 C77.55253897 44.01289229 86.26605709 49.02258847 95 54 C104.72115617 59.5400173 114.40894658 65.13374809 124.06689453 70.78344727 C134.57045435 76.92574259 145.11279074 83.00025862 155.65625 89.07373047 C160.26777425 91.73034016 164.8785214 94.38829557 169.48876953 97.04711914 C171.66664882 98.30312898 173.84469506 99.55884939 176.02294922 100.81420898 C178.02014181 101.96591587 180.01077487 103.129085 181.99414062 104.30444336 C185.02137096 106.06482596 185.02137096 106.06482596 188.39648438 107.57250977 C196.48565171 111.52354605 196.48565171 111.52354605 197.94287109 115.70654297 C198.18359046 118.86874341 198.05555178 121.78209029 197.75 124.9375 C197.69585938 126.00291016 197.64171875 127.06832031 197.5859375 128.16601562 C197.44496376 130.78577755 197.24861148 133.38862323 197 136 C181.4001637 127.52876953 165.85180052 118.94559439 150.58325195 109.88842773 C144.2716483 106.14652161 137.92007734 102.47567329 131.5625 98.8125 C130.45527588 98.17449463 129.34805176 97.53648926 128.20727539 96.87915039 C125.93662932 95.57110523 123.66587642 94.26324552 121.39501953 92.95556641 C115.9283002 89.80667946 110.46425113 86.65316736 105 83.5 C102.83334689 82.2499765 100.66668021 80.99997653 98.5 79.75 C92 76 92 76 85.5 72.25 C84.42693604 71.63092773 83.35387207 71.01185547 82.24829102 70.37402344 C80.08731012 69.12729744 77.92634002 67.88055273 75.76538086 66.63378906 C70.26181149 63.45854117 64.75803968 60.28364505 59.25390625 57.109375 C58.13306641 56.46291016 57.01222656 55.81644531 55.85742188 55.15039062 C53.76895269 53.94583786 51.68041893 52.74139704 49.59179688 51.53710938 C40.05458609 46.0360814 30.52837688 40.51642872 21 35 C20.67 68.33 20.34 101.66 20 136 C13.4 136 6.8 136 0 136 C0 91.12 0 46.24 0 0 Z " fill="#FBFDFD" transform="translate(697,231)"/>
<path d="M0 0 C-1.36472823 3.63260345 -2.9980116 6.90961407 -4.94921875 10.26171875 C-5.5421875 11.28458984 -6.13515625 12.30746094 -6.74609375 13.36132812 C-7.38675781 14.45896484 -8.02742188 15.55660156 -8.6875 16.6875 C-9.3623338 17.84940348 -10.03680656 19.01151671 -10.7109375 20.17382812 C-12.11107089 22.5872404 -13.51275019 24.9997446 -14.91552734 27.41162109 C-18.12491268 32.93267071 -21.31125063 38.46701601 -24.5 44 C-25.7498918 46.16672909 -26.99989215 48.33339556 -28.25 50.5 C-29.178125 52.10875 -29.178125 52.10875 -30.125 53.75 C-37 65.66666667 -43.875 77.58333333 -50.75 89.5 C-51.36979736 90.57451416 -51.98959473 91.64902832 -52.62817383 92.75610352 C-53.8668981 94.90282707 -55.10630844 97.0491549 -56.34643555 99.19506836 C-59.29252424 104.29491908 -62.23112971 109.39870477 -65.14590454 114.51651001 C-66.53110231 116.94768727 -67.92017604 119.37663907 -69.30957031 121.80541992 C-70.29481995 123.53152548 -71.27441661 125.26085377 -72.25390625 126.99023438 C-72.846875 128.02599609 -73.43984375 129.06175781 -74.05078125 130.12890625 C-74.57325439 131.04744385 -75.09572754 131.96598145 -75.6340332 132.91235352 C-77 135 -77 135 -79 136 C-89.47384755 113.88263666 -88.85074574 86.42953976 -80.83203125 63.6875 C-79.66416657 60.72437409 -78.38657405 57.8666707 -77 55 C-76.57074219 54.10152344 -76.14148438 53.20304687 -75.69921875 52.27734375 C-63.90296655 29.18327254 -43.2686943 12.25547723 -18.9609375 3.63427734 C-12.88030669 1.66745976 -6.40382256 0 0 0 Z " fill="#1692EF" transform="translate(172,151)"/>
<path d="M0 0 C21.78 0 43.56 0 66 0 C64.34683252 4.95950244 62.48543293 8.86322334 59.8125 13.25 C58.90501595 14.76618915 57.99885194 16.28316888 57.09375 17.80078125 C56.59875 18.62916504 56.10375 19.45754883 55.59375 20.31103516 C52.6209771 25.32667865 49.72060528 30.38418227 46.8125 35.4375 C46.17546143 36.54319336 45.53842285 37.64888672 44.88208008 38.78808594 C43.57299343 41.06024082 42.26415738 43.33254009 40.95556641 45.60498047 C37.18823572 52.14536756 33.41515691 58.68244101 29.64160156 65.21923828 C26.75931512 70.21303733 23.87918844 75.20802899 21.00805664 80.20825195 C4.76163839 108.50222081 4.76163839 108.50222081 1 114 C0.67 114 0.34 114 0 114 C0 76.38 0 38.76 0 0 Z " fill="#138EEB" transform="translate(362,151)"/>
<path d="M0 0 C0.33 0 0.66 0 1 0 C1 13.2 1 26.4 1 40 C-14.18 40 -29.36 40 -45 40 C-45 39.67 -45 39.34 -45 39 C-44.10539063 38.84144531 -43.21078125 38.68289063 -42.2890625 38.51953125 C-27.60781063 35.6865818 -16.44277543 30.08019627 -7.625 17.5625 C-4.21251728 12.06192587 -2.0386319 6.1158957 0 0 Z " fill="#000000" transform="translate(959,460)"/>
<path d="M0 0 C1.25200062 2.50400125 2.46792411 5.02673994 3.62890625 7.57421875 C9.43934437 20.08702156 16.68173055 29.93062903 29.921875 35.15234375 C35.25331892 37.01569666 40.37169779 38.48833616 46 39 C46 39.33 46 39.66 46 40 C30.82 40 15.64 40 0 40 C0 26.8 0 13.6 0 0 Z " fill="#000000" transform="translate(0,460)"/>
<path d="M0 0 C13.2 0 26.4 0 40 0 C40 13.2 40 26.4 40 40 C38.38897386 36.77794772 37.09649079 33.66489916 35.8125 30.3125 C30.66249766 17.93442421 21.93798281 9.20998854 9.6328125 4 C6.4474446 2.79012733 3.30899315 1.80886499 0 1 C0 0.67 0 0.34 0 0 Z " fill="#000000" transform="translate(920,0)"/>
<path d="M0 0 C13.2 0 26.4 0 40 0 C36.77794772 1.61102614 33.66489916 2.90350921 30.3125 4.1875 C17.93442421 9.33750234 9.20998854 18.06201719 4 30.3671875 C2.79012733 33.5525554 1.80886499 36.69100685 1 40 C0.67 40 0.34 40 0 40 C0 26.8 0 13.6 0 0 Z " fill="#000000" transform="translate(0,0)"/>
</svg>
